<?xml version="1.0" encoding="utf-8"?><svg  height="20" viewBox="0 0 144 24" class="h-32 shrink-0" data-sentry-element="svg" data-sentry-source-file="Logos.tsx" fill="none" xmlns="http://www.w3.org/2000/svg" data-sentry-component="HumanloopLogo"><path d="M132.305 24.0001V8.34392H134.162V10.0173H134.208C135.101 8.80237 136.293 8.06885 138.013 8.06885C141.016 8.06885 143.101 10.3611 143.101 14.3038C143.101 18.1089 141.153 20.5387 137.944 20.5387C136.339 20.5387 135.193 20.0574 134.208 18.7966H134.162V24.0001H132.305ZM137.806 18.98C140.076 18.98 141.199 17.0087 141.199 14.3267C141.199 11.6677 140.076 9.65051 137.829 9.65051C135.239 9.65051 134.047 11.7594 134.047 14.3267C134.047 16.8941 135.079 18.98 137.806 18.98Z" fill="currentColor" data-sentry-element="path" data-sentry-source-file="Logos.tsx"></path><path d="M124.837 20.5158C121.307 20.5158 119.107 17.7192 119.107 14.2808C119.107 10.8425 121.307 8.0459 124.837 8.0459C128.39 8.0459 130.545 10.8425 130.545 14.2808C130.545 17.7192 128.39 20.5158 124.837 20.5158ZM124.837 18.9571C127.359 18.9571 128.643 16.894 128.643 14.2808C128.643 11.6677 127.359 9.58171 124.837 9.58171C122.316 9.58171 121.009 11.6677 121.009 14.2808C121.009 16.894 122.316 18.9571 124.837 18.9571Z" fill="currentColor" data-sentry-element="path" data-sentry-source-file="Logos.tsx"></path><path d="M112.303 20.5158C108.773 20.5158 106.573 17.7192 106.573 14.2808C106.573 10.8425 108.773 8.0459 112.303 8.0459C115.856 8.0459 118.011 10.8425 118.011 14.2808C118.011 17.7192 115.856 20.5158 112.303 20.5158ZM112.303 18.9571C114.825 18.9571 116.108 16.894 116.108 14.2808C116.108 11.6677 114.825 9.58171 112.303 9.58171C109.782 9.58171 108.475 11.6677 108.475 14.2808C108.475 16.894 109.782 18.9571 112.303 18.9571Z" fill="currentColor" data-sentry-element="path" data-sentry-source-file="Logos.tsx"></path><path d="M102.876 20.1948V3.80518H104.733V20.1948H102.876Z" fill="currentColor" data-sentry-element="path" data-sentry-source-file="Logos.tsx"></path><path d="M92.6451 8.34392V9.90266H92.6909C93.539 8.77945 94.731 8.06885 96.4502 8.06885C98.9259 8.06885 100.439 9.42128 100.439 11.874V20.1949H98.582V12.0345C98.582 10.4986 97.5734 9.62759 95.9001 9.62759C94.0204 9.62759 92.6451 10.9571 92.6451 12.9055V20.1949H90.7883V8.34392H92.6451Z" fill="currentColor" data-sentry-element="path" data-sentry-source-file="Logos.tsx"></path><path d="M87.0511 20.195C86.8448 19.9887 86.7073 19.599 86.6844 18.5675H86.6615C85.9509 19.4844 84.8276 20.4242 82.8105 20.4242C80.564 20.4242 78.7302 19.301 78.7302 17.0546C78.7302 14.2809 80.9537 13.662 83.9337 13.364C85.7446 13.1806 86.7302 12.8826 86.7302 11.599C86.7302 10.2695 85.8362 9.51302 84.14 9.51302C82.2145 9.51302 81.2288 10.3612 81.0913 12.1262H79.3033C79.4408 9.90271 80.9766 8.11475 84.117 8.11475C86.6385 8.11475 88.4265 9.05457 88.4265 11.8741V18.4987C88.4265 19.3697 88.6557 19.9887 88.862 20.1262V20.195H87.0511ZM83.1772 19.003C85.6529 19.003 86.7531 17.1921 86.7531 15.8167V14.0059C86.1342 14.3268 85.034 14.6248 84.0024 14.7394C81.9623 14.9915 80.7016 15.3124 80.7016 17.0087C80.7016 18.5904 81.9623 19.003 83.1772 19.003Z" fill="currentColor" data-sentry-element="path" data-sentry-source-file="Logos.tsx"></path><path d="M61.333 20.1949V8.34392H63.1898V10.0402H63.2356C63.9691 8.89406 65.2299 8.06885 66.7199 8.06885C68.164 8.06885 69.3102 8.80237 69.8145 10.1777H69.8603C70.6168 8.82529 72.038 8.06885 73.4822 8.06885C75.5911 8.06885 77.0811 9.42128 77.0811 11.874V20.1949H75.2243V11.9657C75.2243 10.4986 74.2386 9.62759 73.0466 9.62759C71.5108 9.62759 70.1354 10.9571 70.1354 12.8138V20.1949H68.2787V11.9657C68.2787 10.4986 67.4534 9.62759 66.2385 9.62759C64.7944 9.62759 63.1898 10.9571 63.1898 12.8138V20.1949H61.333Z" fill="currentColor" data-sentry-element="path" data-sentry-source-file="Logos.tsx"></path><path d="M58.9138 20.1947H57.0571V18.5672H57.0112C56.1631 19.7134 55.1545 20.4698 53.4353 20.4698C51.0055 20.4698 49.4468 19.0028 49.4468 16.55V8.34375H51.3035V16.5042C51.3035 18.04 52.2892 18.934 53.9625 18.934C55.8422 18.934 57.0571 17.5128 57.0571 15.6331V8.34375H58.9138V20.1947Z" fill="currentColor" data-sentry-element="path" data-sentry-source-file="Logos.tsx"></path><path d="M33.9214 20.1948V3.80518H35.9844V10.7736H44.741V3.80518H46.8041V20.1948H44.741V12.447H35.9844V20.1948H33.9214Z" fill="currentColor" data-sentry-element="path" data-sentry-source-file="Logos.tsx"></path><path fill-rule="evenodd" clip-rule="evenodd" d="M5.12101 23.4362C2.91277 22.4796 1.83602 20.6761 1.36448 19.6995C0.841719 18.6167 0.563213 17.5093 0.399286 16.6593C0.0659507 14.931 0 13.1377 0 12.0004C0 10.8631 0.06592 9.06895 0.399255 7.34067C0.563182 6.49074 0.841688 5.38327 1.36445 4.30054C1.83599 3.32392 2.91274 1.52045 5.12098 0.563824C6.2635 0.0688737 9.2963 -0.0072746 11.2917 0.000512542L15.0305 0.000471971C17.026 -0.00700518 20.0502 0.0697457 21.1907 0.563824C23.3989 1.52045 24.4757 3.32392 24.9472 4.30054C25.47 5.38327 25.7485 6.49074 25.9124 7.34067C26.2457 9.06895 26.3117 10.8631 26.3117 12.0004C26.3117 13.1377 26.2458 14.931 25.9124 16.6593C25.7485 17.5093 25.47 18.6167 24.9472 19.6995C24.4757 20.6761 23.3989 22.4796 21.1907 23.4362C20.0502 23.9303 17.0261 24.007 15.0305 23.9995L11.2917 23.9995C9.29633 24.0073 6.26353 23.9311 5.12101 23.4362ZM9.90542 7.7163C10.0443 8.11226 10.1756 8.53856 10.2983 8.9674C10.4062 8.60702 10.5213 8.24909 10.6438 7.90912C10.8851 7.23949 11.1753 6.57712 11.5305 6.06864C11.8653 5.58941 12.3984 5.04931 13.1636 5.04931C13.9288 5.04931 14.462 5.58941 14.7967 6.06864C15.1519 6.57712 15.4422 7.23949 15.6834 7.90912C15.8059 8.24909 15.921 8.60702 16.0289 8.9674C16.1516 8.53856 16.2829 8.11226 16.4218 7.7163C16.665 7.02298 16.9607 6.33063 17.3261 5.83994C17.509 5.59425 17.7525 5.33966 18.0723 5.18666C18.4261 5.01745 18.8282 4.99618 19.2175 5.16493C19.8134 5.42325 20.1958 5.95676 20.4474 6.47807C20.7058 7.01365 20.882 7.65155 21.0053 8.29147C21.2528 9.57514 21.3147 11.0142 21.3147 12.013C21.3147 13.0113 21.2528 14.4714 21.0056 15.7638C20.8824 16.4073 20.7061 17.0493 20.4456 17.5819C20.1936 18.0974 19.7997 18.6385 19.1728 18.8655C18.7763 19.009 18.3843 18.96 18.0502 18.7887C17.7429 18.6313 17.5033 18.3822 17.3184 18.1364C16.9492 17.6458 16.6465 16.9621 16.3974 16.2732C16.266 15.9098 16.1428 15.5251 16.0283 15.1377C15.9272 15.4676 15.819 15.795 15.7037 16.1087C15.4579 16.7769 15.1613 17.4359 14.8005 17.9415C14.4602 18.4184 13.9236 18.9503 13.1636 18.9503C12.4036 18.9503 11.867 18.4184 11.5268 17.9415C11.1659 17.4359 10.8693 16.7769 10.6236 16.1087C10.5082 15.795 10.4 15.4676 10.2989 15.1377C10.1844 15.5251 10.0612 15.9098 9.92985 16.2732C9.68075 16.9621 9.37805 17.6458 9.00886 18.1364C8.82387 18.3822 8.58432 18.6313 8.27704 18.7887C7.94294 18.96 7.55089 19.009 7.15446 18.8655C6.52757 18.6385 6.13364 18.0974 5.88159 17.5819C5.62117 17.0493 5.44481 16.4073 5.32167 15.7638C5.07438 14.4714 5.01251 13.0113 5.01251 12.013C5.01251 11.0142 5.07442 9.57514 5.32187 8.29147C5.44523 7.65155 5.62138 7.01365 5.87983 6.47807C6.1314 5.95676 6.51377 5.42325 7.10975 5.16493C7.49907 4.99618 7.90111 5.01745 8.25487 5.18666C8.57476 5.33966 8.81817 5.59425 9.00112 5.83994C9.36653 6.33063 9.66223 7.02298 9.90542 7.7163ZM15.057 11.351C15.1172 11.5866 15.1749 11.8123 15.2305 12.0233L15.2069 12.1222C14.9688 13.1178 14.6511 14.4464 14.238 15.5696C14.0093 16.1912 13.7697 16.6974 13.5292 17.0345C13.311 17.3403 13.1845 17.3823 13.1636 17.3879C13.1427 17.3823 13.0162 17.3403 12.798 17.0345C12.5575 16.6974 12.3179 16.1912 12.0893 15.5696C11.6761 14.4464 11.3584 13.1177 11.1203 12.1222L11.0967 12.0233C11.1524 11.8119 11.2102 11.5859 11.2706 11.3499C11.5038 10.4376 11.7752 9.37639 12.1131 8.4384C12.3389 7.81157 12.5738 7.30213 12.8108 6.96291C13.0175 6.66696 13.1394 6.61937 13.1636 6.6121C13.1878 6.61937 13.3097 6.66696 13.5164 6.96291C13.7534 7.30213 13.9883 7.81157 14.2142 8.4384C14.5521 9.37639 14.8234 10.4376 15.0567 11.3499L15.057 11.351ZM16.8726 12.1569L16.8415 12.0254C16.912 11.7602 16.9861 11.4674 17.0644 11.1578L17.0645 11.1575C17.2974 10.2365 17.5679 9.16693 17.8954 8.2332C18.1288 7.56799 18.3618 7.06389 18.5786 6.77264C18.6203 6.71671 18.655 6.67745 18.6818 6.65037C18.7771 6.7249 18.9044 6.87385 19.0409 7.15677C19.2171 7.52181 19.3613 8.01312 19.4719 8.58706C19.6924 9.73112 19.753 11.0584 19.753 12.013C19.753 12.968 19.6924 14.3169 19.4717 15.4703C19.3609 16.0496 19.2168 16.5397 19.0427 16.896C18.908 17.1714 18.7884 17.3006 18.7091 17.3587C18.6753 17.3283 18.6269 17.278 18.5662 17.1973C18.3419 16.8993 18.1024 16.396 17.866 15.7422C17.4463 14.5814 17.1122 13.1695 16.8726 12.157L16.8726 12.1569ZM9.26279 11.1576C9.34111 11.4673 9.41519 11.7601 9.48575 12.0254L9.45461 12.1569C9.21502 13.1695 8.88091 14.5814 8.46122 15.7422C8.2248 16.396 7.98536 16.8993 7.76104 17.1973C7.70034 17.278 7.65194 17.3283 7.61807 17.3587C7.53886 17.3006 7.41922 17.1714 7.28455 16.896C7.11037 16.5397 6.96637 16.0496 6.85552 15.4703C6.63482 14.3169 6.57419 12.968 6.57419 12.013C6.57419 11.0584 6.63478 9.73112 6.85531 8.58706C6.96595 8.01312 7.11016 7.52181 7.28631 7.15677C7.42284 6.87385 7.55015 6.7249 7.64545 6.65037C7.67225 6.67745 7.70693 6.71671 7.74858 6.77264C7.96546 7.06389 8.19844 7.56799 8.43178 8.2332C8.75931 9.16693 9.02983 10.2365 9.26276 11.1575L9.26279 11.1576Z" fill="currentColor" data-sentry-element="path" data-sentry-source-file="Logos.tsx"></path></svg>