<svg width="480" height="480" viewBox="0 0 480 480" fill="none" xmlns="http://www.w3.org/2000/svg">
<g clip-path="url(#clip0_3150_8532)">
<rect width="480" height="480" rx="48" fill="#010A0F"/>
<path fill-rule="evenodd" clip-rule="evenodd" d="M40 199.68C40 68.1835 68.1836 40 199.68 40H280.32C411.817 40 440 68.1835 440 199.68V280.32C440 411.816 411.817 440 280.32 440H199.68C68.1836 440 40 411.816 40 280.32V199.68ZM94.4942 239.07C94.4942 181.904 94.4942 153.321 107.901 132.613C114.303 122.724 122.724 114.303 132.613 107.901C153.32 94.4941 181.904 94.4941 239.071 94.4941C280.37 94.4941 301.021 94.4941 309.351 104.206C313.203 108.698 315.524 114.3 315.976 120.2C316.953 132.958 302.351 147.56 273.148 176.763L176.764 273.147C147.56 302.35 132.959 316.953 120.201 315.975C114.3 315.523 108.698 313.202 104.206 309.35C94.4942 301.02 94.4942 280.37 94.4942 239.07ZM372.034 347.241C385.44 326.533 385.44 297.95 385.44 240.783C385.44 199.483 385.44 178.834 375.728 170.503C371.237 166.651 365.634 164.33 359.734 163.878C346.976 162.901 332.374 177.503 303.171 206.706L206.787 303.09C177.584 332.294 162.982 346.895 163.958 359.653C164.41 365.553 166.731 371.155 170.584 375.647C178.914 385.359 199.564 385.359 240.864 385.359C298.03 385.359 326.614 385.359 347.322 371.952C357.21 365.551 365.632 357.129 372.034 347.241Z" fill="url(#paint0_linear_3150_8532)"/>
</g>
<defs>
<linearGradient id="paint0_linear_3150_8532" x1="405.779" y1="85.3249" x2="178.706" y2="478.339" gradientUnits="userSpaceOnUse">
<stop stop-color="#BC00FF"/>
<stop offset="0.508871" stop-color="#49BAEA"/>
<stop offset="1" stop-color="#AFFF00"/>
</linearGradient>
<clipPath id="clip0_3150_8532">
<rect width="480" height="480" fill="white"/>
</clipPath>
</defs>
</svg>
